<svg width="51" height="28" viewBox="0 0 51 28" fill="none" xmlns="http://www.w3.org/2000/svg">
<path d="M37.2187 0H13.7813C6.17011 0 0 6.26801 0 14C0 21.732 6.17011 28 13.7813 28H37.2187C44.8299 28 51 21.732 51 14C51 6.26801 44.8299 0 37.2187 0Z" fill="#303030"/>
<path d="M7.99508 7.198H22.8418V14.7832C22.8418 16.7279 21.8197 18.5252 20.1631 19.4975L15.4185 22.2803L10.6738 19.4975C9.01503 18.5252 7.99508 16.7279 7.99508 14.7832V7.198Z" fill="#FFDD2D"/>
<path fill-rule="evenodd" clip-rule="evenodd" d="M12.0684 11.1907V13.5489C12.3867 13.1838 12.9628 12.9374 13.6232 12.9374H14.34V15.6806C14.34 16.411 14.1451 17.0489 13.855 17.4009H16.9755C16.6874 17.0489 16.4925 16.411 16.4925 15.6828V12.9396H17.2093C17.8698 12.9396 18.448 13.186 18.7642 13.5511V11.1929H12.0662L12.0684 11.1907Z" fill="#333333"/>
<path d="M31.3176 18.7562V9.84229H28.5501V18.7562H31.3176Z" fill="white"/>
<path d="M37.9874 18.7562C41.4891 18.7562 43.2215 16.8643 43.2215 14.2992C43.2215 11.7342 41.4869 9.84229 38.2819 9.84229H33.3424V18.7562H37.9896H37.9874ZM37.7081 11.9762C39.6072 11.9762 40.3998 12.8385 40.3998 14.2992C40.3998 15.6478 39.6094 16.6773 37.7081 16.6773H36.0125V11.9762H37.7081Z" fill="white"/>
</svg>
